<?xml version="1.0" encoding="UTF-8" standalone="no"?>
<!-- Created with Inkscape (http://www.inkscape.org/) -->

<svg
   xmlns:osb="http://www.openswatchbook.org/uri/2009/osb"
   xmlns:dc="http://purl.org/dc/elements/1.1/"
   xmlns:cc="http://creativecommons.org/ns#"
   xmlns:rdf="http://www.w3.org/1999/02/22-rdf-syntax-ns#"
   xmlns:svg="http://www.w3.org/2000/svg"
   xmlns="http://www.w3.org/2000/svg"
   xmlns:xlink="http://www.w3.org/1999/xlink"
   xmlns:sodipodi="http://sodipodi.sourceforge.net/DTD/sodipodi-0.dtd"
   xmlns:inkscape="http://www.inkscape.org/namespaces/inkscape"
   width="152"
   height="152"
   id="svg2999"
   version="1.1"
   inkscape:version="0.48.4 r9939"
   sodipodi:docname="icon.svg"
   inkscape:export-filename="C:\Users\Derek\Documents\GitHub\BusTracker\icons\android\152x152.png"
   inkscape:export-xdpi="90"
   inkscape:export-ydpi="90">
  <defs
     id="defs3001">
    <linearGradient
       id="linearGradient3786">
      <stop
         style="stop-color:#ffffff;stop-opacity:0.58035713;"
         offset="0"
         id="stop3788" />
      <stop
         id="stop3789"
         offset="0.88732392"
         style="stop-color:#ffffff;stop-opacity:0.70535713;" />
      <stop
         style="stop-color:#ffffff;stop-opacity:0.72156864;"
         offset="1"
         id="stop3790" />
    </linearGradient>
    <linearGradient
       id="linearGradient3006">
      <stop
         style="stop-color:#fcf3e0;stop-opacity:1;"
         offset="0"
         id="stop3008" />
      <stop
         style="stop-color:#f7dfac;stop-opacity:1;"
         offset="1"
         id="stop3010" />
    </linearGradient>
    <linearGradient
       id="linearGradient5455"
       osb:paint="solid">
      <stop
         style="stop-color:#161616;stop-opacity:1;"
         offset="0"
         id="stop5457" />
    </linearGradient>
    <filter
       color-interpolation-filters="sRGB"
       id="filter4055"
       inkscape:label="filter1" />
    <filter
       id="filter4089"
       inkscape:label="Ripple"
       inkscape:menu="Distort"
       inkscape:menu-tooltip="Horizontal rippling of edges"
       color-interpolation-filters="sRGB">
      <feTurbulence
         id="feTurbulence4091"
         numOctaves="1"
         baseFrequency="0.002 0.0098039215686274508" />
      <feColorMatrix
         id="feColorMatrix4093"
         values="2 0 0 0 0 0 0 0 0 0 0 0 0 0 0 0 0 0 0.5 0.5"
         result="result91" />
      <feDisplacementMap
         id="feDisplacementMap4095"
         in2="result91"
         yChannelSelector="A"
         xChannelSelector="R"
         scale="14.3"
         in="SourceGraphic" />
    </filter>
    <filter
       id="filter4089-1"
       inkscape:label="Ripple"
       inkscape:menu="Distort"
       inkscape:menu-tooltip="Horizontal rippling of edges"
       color-interpolation-filters="sRGB">
      <feTurbulence
         id="feTurbulence4091-6"
         numOctaves="1"
         baseFrequency="0.002 0.0098039215686274508" />
      <feColorMatrix
         id="feColorMatrix4093-8"
         values="2 0 0 0 0 0 0 0 0 0 0 0 0 0 0 0 0 0 0.5 0.5"
         result="result91" />
      <feDisplacementMap
         id="feDisplacementMap4095-5"
         in2="result91"
         yChannelSelector="A"
         xChannelSelector="R"
         scale="14.3"
         in="SourceGraphic" />
    </filter>
    <filter
       color-interpolation-filters="sRGB"
       id="filter4055-1"
       inkscape:label="filter1" />
    <linearGradient
       inkscape:collect="always"
       xlink:href="#linearGradient3006"
       id="linearGradient3012"
       x1="72.389153"
       y1="151.1172"
       x2="72.389153"
       y2="2.7545331"
       gradientUnits="userSpaceOnUse" />
    <radialGradient
       inkscape:collect="always"
       xlink:href="#linearGradient3786"
       id="radialGradient3794"
       cx="71.064957"
       cy="-21.46912"
       fx="71.064957"
       fy="-21.46912"
       r="110.79071"
       gradientTransform="matrix(1,0,0,0.66135457,0,-7.2704195)"
       gradientUnits="userSpaceOnUse" />
    <linearGradient
       inkscape:collect="always"
       xlink:href="#linearGradient3006-4"
       id="linearGradient3012-3"
       x1="72.389153"
       y1="151.1172"
       x2="72.389153"
       y2="2.7545331"
       gradientUnits="userSpaceOnUse" />
    <linearGradient
       id="linearGradient3006-4">
      <stop
         style="stop-color:#fcf3e0;stop-opacity:1;"
         offset="0"
         id="stop3008-5" />
      <stop
         style="stop-color:#f7dfac;stop-opacity:1;"
         offset="1"
         id="stop3010-0" />
    </linearGradient>
    <clipPath
       clipPathUnits="userSpaceOnUse"
       id="clipPath3838">
      <rect
         style="opacity:0.98000004;fill:#ffffff;fill-opacity:1;stroke:none"
         id="rect3840"
         width="104.52602"
         height="139.78947"
         x="18.249659"
         y="-26.712706"
         ry="20.364069" />
    </clipPath>
  </defs>
  <sodipodi:namedview
     id="base"
     pagecolor="#000000"
     bordercolor="#666666"
     borderopacity="1.0"
     inkscape:pageopacity="0"
     inkscape:pageshadow="2"
     inkscape:zoom="2.4162219"
     inkscape:cx="93.410555"
     inkscape:cy="66.77271"
     inkscape:document-units="px"
     inkscape:current-layer="flowRoot2993"
     showgrid="false"
     inkscape:window-width="1366"
     inkscape:window-height="705"
     inkscape:window-x="223"
     inkscape:window-y="1016"
     inkscape:window-maximized="1" />
  <metadata
     id="metadata3004">
    <rdf:RDF>
      <cc:Work
         rdf:about="">
        <dc:format>image/svg+xml</dc:format>
        <dc:type
           rdf:resource="http://purl.org/dc/dcmitype/StillImage" />
        <dc:title></dc:title>
      </cc:Work>
    </rdf:RDF>
  </metadata>
  <g
     inkscape:groupmode="layer"
     id="layer2"
     inkscape:label="bg">
    <rect
       style="opacity:0.98000003999999996;fill:url(#linearGradient3012);fill-opacity:1;stroke:none"
       id="rect3110"
       width="152"
       height="152"
       x="0"
       y="-0.02480459"
       ry="22.142859" />
    <path
       sodipodi:type="arc"
       style="fill:url(#radialGradient3794);fill-opacity:1;stroke:none"
       id="path3784"
       sodipodi:cx="71.064957"
       sodipodi:cy="-21.46912"
       sodipodi:rx="110.79071"
       sodipodi:ry="73.271942"
       d="m 181.85567,-21.46912 a 110.79071,73.271942 0 1 1 -221.581424,0 110.79071,73.271942 0 1 1 221.581424,0 z"
       transform="matrix(1.4541833,0,0,1.1098365,-26.53835,27.856348)"
       clip-path="url(#clipPath3838)" />
  </g>
  <g
     inkscape:label="front"
     inkscape:groupmode="layer"
     id="layer1"
     transform="translate(0,-900.36218)"
     style="display:inline">
    <g
       transform="matrix(0.30786303,0,0,0.30786303,-139.11365,1002.0099)"
       id="g4097">
      <g
         id="g3079">
        <g
           id="g3093"
           transform="matrix(1.0104421,0,0,1.0104421,-16.576817,-1.3614636)">
          <path
             transform="matrix(3.4453758,0,0,2.8804685,408.81355,-189.7547)"
             d="m 144.19652,64.549286 c 0,6.01038 -26.88508,10.882756 -60.049494,10.882756 -33.164419,0 -60.049492,-4.872376 -60.049492,-10.882756 0,-6.01038 26.885073,-10.882756 60.049492,-10.882756 33.164414,0 60.049494,4.872376 60.049494,10.882756 z"
             sodipodi:ry="10.882756"
             sodipodi:rx="60.049492"
             sodipodi:cy="64.549286"
             sodipodi:cx="84.147026"
             id="path3844"
             style="fill:#ee7070;fill-opacity:1;filter:url(#filter4089);stroke:#ffffff;stroke-opacity:1;stroke-width:1.02042517;stroke-miterlimit:4;stroke-dasharray:none;stroke-linejoin:round"
             sodipodi:type="arc" />
          <g
             transform="matrix(4.0326557,0,0,4.0326557,483.17362,-354.94774)"
             style="font-size:40px;font-style:normal;font-weight:normal;line-height:125%;letter-spacing:0px;word-spacing:0px;opacity:0.98000004;fill:#141414;fill-opacity:1;stroke:#ffffff;stroke-width:0.63771975;stroke-linejoin:round;stroke-miterlimit:4;stroke-opacity:1;display:inline;font-family:Sans"
             id="flowRoot2993">
            <path
               d="m 51.375,39.520776 0.96875,14.40625 -0.96875,0 c -1.291704,-4.312467 -3.135452,-7.416631 -5.53125,-9.3125 -2.395864,-1.895793 -5.270861,-2.843709 -8.625,-2.84375 -2.812522,4.1e-5 -5.354186,0.713582 -7.625,2.140625 -2.270848,1.427121 -4.057304,3.70316 -5.359375,6.828125 -1.302093,3.125029 -1.953134,7.010442 -1.953125,11.65625 -9e-6,3.83335 0.614573,7.156263 1.84375,9.96875 1.229154,2.812507 3.078111,4.968755 5.546875,6.46875 2.468731,1.500002 5.286436,2.250002 8.453125,2.25 2.749972,2e-6 5.177053,-0.58854 7.28125,-1.765625 2.104132,-1.177079 4.41663,-3.515618 6.9375,-7.015625 l 0.96875,0.625 c -2.125038,3.770839 -4.604203,6.531253 -7.4375,8.28125 -2.833364,1.75 -6.197944,2.624999 -10.09375,2.625 -7.020849,-10e-7 -12.458344,-2.604165 -16.3125,-7.8125 -2.875004,-3.874989 -4.312502,-8.437485 -4.3125,-13.6875 -2e-6,-4.229142 0.947913,-8.114555 2.84375,-11.65625 1.895826,-3.541631 4.505199,-6.28642 7.828125,-8.234375 3.3229,-1.947875 6.953105,-2.921832 10.890625,-2.921875 3.062473,4.3e-5 6.083303,0.750042 9.0625,2.25 0.874966,0.458374 1.499966,0.68754 1.875,0.6875 0.562465,4e-5 1.052047,-0.197876 1.46875,-0.59375 0.54163,-0.562459 0.927046,-1.343708 1.15625,-2.34375 z"
               style="font-size:64px;font-variant:normal;font-stretch:normal;fill:#141414;stroke:#ffffff;font-family:Serif;-inkscape-font-specification:Serif"
               id="path3032" />
            <path
               d="m 86.125,41.645776 0,-1.15625 15,0 0,1.15625 -1.59375,0 c -1.666709,4.1e-5 -2.947958,0.697957 -3.84375,2.09375 -0.43754,0.645872 -0.656289,2.14587 -0.65625,4.5 l 0,17.1875 c -3.9e-5,4.250013 -0.421914,7.546885 -1.265625,9.890625 -0.843787,2.343755 -2.500036,4.35417 -4.96875,6.03125 -2.468781,1.677083 -5.828152,2.515624 -10.078125,2.515625 -4.625018,-10e-7 -8.135432,-0.802084 -10.53125,-2.40625 -2.395844,-1.604164 -4.093759,-3.760412 -5.09375,-6.46875 -0.666674,-1.854157 -1.000006,-5.33332 -1,-10.4375 l 0,-16.5625 c -6e-6,-2.604129 -0.359381,-4.312461 -1.078125,-5.125 -0.718755,-0.812459 -1.880212,-1.218709 -3.484375,-1.21875 l -1.59375,0 0,-1.15625 18.3125,0 0,1.15625 -1.625,0 c -1.750015,4.1e-5 -3.000014,0.552124 -3.75,1.65625 -0.520846,0.750039 -0.781262,2.312537 -0.78125,4.6875 l 0,18.46875 c -1.2e-5,1.645848 0.151029,3.531263 0.453125,5.65625 0.30207,2.125008 0.848945,3.781257 1.640625,4.96875 0.791651,1.187504 1.932275,2.16667 3.421875,2.9375 1.489564,0.770835 3.317687,1.156251 5.484375,1.15625 2.770807,10e-7 5.249971,-0.604165 7.4375,-1.8125 2.187467,-1.208329 3.682257,-2.755202 4.484375,-4.640625 0.802047,-1.885407 1.203088,-5.078112 1.203125,-9.578125 l 0,-17.15625 c -3.7e-5,-2.645796 -0.291703,-4.302044 -0.875,-4.96875 -0.812535,-0.916626 -2.020867,-1.374959 -3.625,-1.375 z"
               style="font-size:64px;font-variant:normal;font-stretch:normal;fill:#141414;stroke:#ffffff;font-family:Serif;-inkscape-font-specification:Serif"
               id="path3034" />
          </g>
          <path
             style="fill:#3797c8;fill-opacity:0.7574257;stroke:#ffffff;stroke-width:1.21099997;stroke-linejoin:round;stroke-miterlimit:4;stroke-opacity:0.78688528;stroke-dasharray:none"
             mask="none"
             clip-path="none"
             d="M 142.5625 53.90625 C 130.03156 62.822249 124.38245 66.833214 108.375 73.4375 C 75.765156 86.891536 19.141456 85.145173 18.90625 73.09375 C 18.849391 70.180503 21.053287 67.361371 25.0625 64.53125 L 25.15625 63.78125 L 25.25 63.1875 C 15.95039 67.406219 10.78125 71.486102 10.78125 76.125 C 10.78125 88.330378 63.511199 92.703391 102.15625 77.84375 C 126.81657 68.361463 140.40205 55.832664 142.5625 53.90625 z "
             transform="matrix(3.2146303,0,0,3.2146303,463.60446,-325.41244)"
             id="path2985" />
          <path
             sodipodi:nodetypes="csscssc"
             inkscape:connector-curvature="0"
             id="path2985-1"
             d="m 1143.4283,-139.47729 c -44.7456,17.26928 -70.3819,32.96846 -70.3819,51.468862 0,39.23578 169.5619,53.24068 293.7914,5.47243 79.2738,-30.482052 122.948,-70.720642 129.8931,-76.913352 -40.2823,28.66164 -58.4871,41.52436 -109.9451,62.754682 -104.8286,43.24975 -286.8901,37.69637 -287.6462,-1.0445 -0.2775,-14.216532 16.1997,-27.786432 44.2887,-41.738122 z"
             style="fill:#3797c8;fill-opacity:0.7574257;stroke:#ffffff;stroke-width:3.89291716;stroke-linejoin:round;stroke-miterlimit:4;stroke-opacity:0.78688528;stroke-dasharray:none;display:inline"
             clip-path="none"
             mask="none" />
        </g>
      </g>
    </g>
  </g>
</svg>
